<?xml version="1.0" encoding="UTF-8"?>
<svg width="24px" height="24px" viewBox="0 0 24 24" version="1.1" xmlns="http://www.w3.org/2000/svg" xmlns:xlink="http://www.w3.org/1999/xlink">
    <!-- Generator: Sketch 40 (33762) - http://www.bohemiancoding.com/sketch -->
    <title>close</title>
    <desc>Created with Sketch.</desc>
    <defs></defs>
    <g id="ui" stroke="none" stroke-width="1" fill="none" fill-rule="evenodd">
        <g id="close" fill="#000000">
            <path d="M19.9178932,21.3321068 C20.3084175,21.7226311 20.9415825,21.7226311 21.3321068,21.3321068 C21.7226311,20.9415825 21.7226311,20.3084175 21.3321068,19.9178932 L4.08210678,2.66789322 C3.69158249,2.27736893 3.05841751,2.27736893 2.66789322,2.66789322 C2.27736893,3.05841751 2.27736893,3.69158249 2.66789322,4.08210678 L19.9178932,21.3321068 Z" id="Shape"></path>
            <path d="M2.66789322,19.9178932 C2.27736893,20.3084175 2.27736893,20.9415825 2.66789322,21.3321068 C3.05841751,21.7226311 3.69158249,21.7226311 4.08210678,21.3321068 L21.3321068,4.08210678 C21.7226311,3.69158249 21.7226311,3.05841751 21.3321068,2.66789322 C20.9415825,2.27736893 20.3084175,2.27736893 19.9178932,2.66789322 L2.66789322,19.9178932 Z" id="Shape"></path>
        </g>
    </g>
</svg>