<?xml version="1.0" encoding="UTF-8" standalone="no"?>
<svg width="24px" height="24px" viewBox="0 0 24 24" version="1.1" xmlns="http://www.w3.org/2000/svg" xmlns:xlink="http://www.w3.org/1999/xlink">
    <!-- Generator: Sketch 39.1 (31720) - http://www.bohemiancoding.com/sketch -->
    <title>email</title>
    <desc>Created with Sketch.</desc>
    <defs></defs>
    <g id="socials" stroke="none" stroke-width="1" fill="none" fill-rule="evenodd">
        <g id="email" fill="#000000">
            <g id="envelope-2.3.3.1" transform="translate(0.000000, 3.000000)">
                <g id="Group">
                    <g id="Outline_Icons_1_" transform="translate(0.000000, 0.666667)">
                        <g id="Outline_Icons">
                            <g id="Group">
                                <path d="M21.1666667,14.7083333 L2.83333333,14.7083333 C2.34992713,14.7083333 1.95833333,14.3165592 1.95833333,13.8333333 L1.95833333,2.83333333 C1.95833333,2.3501075 2.34992713,1.95833333 2.83333333,1.95833333 L21.1666667,1.95833333 C21.6500729,1.95833333 22.0416667,2.3501075 22.0416667,2.83333333 L22.0416667,13.8333333 C22.0416667,14.3165592 21.6500729,14.7083333 21.1666667,14.7083333 Z M23.0416667,2.83333333 C23.0416667,1.79792582 22.2024607,0.958333333 21.1666667,0.958333333 L2.83333333,0.958333333 C1.79753926,0.958333333 0.958333333,1.79792582 0.958333333,2.83333333 L0.958333333,13.8333333 C0.958333333,14.8687409 1.79753926,15.7083333 2.83333333,15.7083333 L21.1666667,15.7083333 C22.2024607,15.7083333 23.0416667,14.8687409 23.0416667,13.8333333 L23.0416667,2.83333333 Z" id="Shape"></path>
                                <path d="M19.7916667,4.70833333 L19.2916667,4.20833333 L19.2916667,7.875 L19.7916667,7.375 L16.125,7.375 L16.625,7.875 L16.625,4.20833333 L16.125,4.70833333 L19.7916667,4.70833333 Z M15.625,3.70833333 L15.625,4.20833333 L15.625,7.875 L15.625,8.375 L16.125,8.375 L19.7916667,8.375 L20.2916667,8.375 L20.2916667,7.875 L20.2916667,4.20833333 L20.2916667,3.70833333 L19.7916667,3.70833333 L16.125,3.70833333 L15.625,3.70833333 Z" id="Rectangle-path"></path>
                                <polygon id="Shape" points="6.95833333 5.625 6.95833333 4.625 5.125 4.625 5.125 5.625"></polygon>
                                <polygon id="Shape" points="13.375 11.125 13.375 10.125 5.125 10.125 5.125 11.125"></polygon>
                                <polygon id="Shape" points="16.125 12.9583333 16.125 11.9583333 5.125 11.9583333 5.125 12.9583333"></polygon>
                            </g>
                        </g>
                    </g>
                </g>
            </g>
        </g>
    </g>
</svg>