<?xml version="1.0" encoding="UTF-8" standalone="no"?>
<svg width="24px" height="24px" viewBox="0 0 24 24" version="1.1" xmlns="http://www.w3.org/2000/svg" xmlns:xlink="http://www.w3.org/1999/xlink">
    <!-- Generator: Sketch 39.1 (31720) - http://www.bohemiancoding.com/sketch -->
    <title>facebook</title>
    <desc>Created with Sketch.</desc>
    <defs></defs>
    <g id="Page-1" stroke="none" stroke-width="1" fill="none" fill-rule="evenodd">
        <g id="facebook" fill="#000000">
            <path d="M18.0714477,2.55550989 L5.70879538,2.55550989 C3.66123154,2.55550989 2,4.23519956 2,6.30551411 L2,18.8055292 C2,20.8758446 3.66123154,22.5555334 5.70879538,22.5555334 L12.5597654,22.5555334 L12.5597654,14.8081287 L9.98421308,14.8081287 L9.98421308,11.7872919 L12.5597654,11.7872919 L12.5597654,9.56072644 C12.5597654,6.98259844 14.1308523,5.57634667 16.4102162,5.57634667 C17.4919485,5.57634667 18.4320254,5.65447211 18.7024585,5.69353444 L18.7024585,8.38885022 L17.1313708,8.401871 C15.8822285,8.401871 15.6504285,8.98780911 15.6504285,9.86020589 L15.6504285,11.7872919 L18.5994362,11.7872919 L18.2131031,14.8081287 L15.6504285,14.8081287 L15.6504285,22.5555334 L18.0714477,22.5555334 C20.1190123,22.5555334 21.7802431,20.8758446 21.7802431,18.8055292 L21.7802431,6.30551411 C21.7802431,4.23519956 20.1190123,2.55550989 18.0714477,2.55550989 L18.0714477,2.55550989 Z" id="Shape"></path>
        </g>
    </g>
</svg>