<?xml version="1.0" encoding="UTF-8" standalone="no"?>
<svg width="24px" height="24px" viewBox="0 0 24 24" version="1.1" xmlns="http://www.w3.org/2000/svg" xmlns:xlink="http://www.w3.org/1999/xlink">
    <!-- Generator: Sketch 39.1 (31720) - http://www.bohemiancoding.com/sketch -->
    <title>instagram</title>
    <desc>Created with Sketch.</desc>
    <defs></defs>
    <g id="Page-1" stroke="none" stroke-width="1" fill="none" fill-rule="evenodd">
        <g id="instagram" fill="#000000">
            <path d="M15.4391689,12.0280763 C15.4391689,13.7765904 14.0130756,15.202683 12.2645615,15.202683 C10.5160474,15.202683 9.08995481,13.7765904 9.08995481,12.0280763 C9.08995481,10.2795622 10.5160474,8.85346963 12.2645615,8.85346963 C14.0130756,8.85346963 15.4391689,10.2795622 15.4391689,12.0280763 L15.4391689,12.0280763 Z M17.15048,12.0280763 C17.15048,9.3247 14.9679378,7.14215778 12.2645615,7.14215778 C9.56118519,7.14215778 7.37864296,9.3247 7.37864296,12.0280763 C7.37864296,14.7314526 9.56118519,16.9139948 12.2645615,16.9139948 C14.9679378,16.9139948 17.15048,14.7314526 17.15048,12.0280763 L17.15048,12.0280763 Z M18.4897674,6.94374444 C18.4897674,6.3113037 17.9813341,5.80287037 17.3488933,5.80287037 C16.7164519,5.80287037 16.2080185,6.3113037 16.2080185,6.94374444 C16.2080185,7.57618593 16.7164519,8.08461926 17.3488933,8.08461926 C17.9813341,8.08461926 18.4897674,7.57618593 18.4897674,6.94374444 L18.4897674,6.94374444 Z M12.2645615,4.21556667 C13.6534519,4.21556667 16.6296459,4.10396 17.8821281,4.59999185 C18.3161563,4.7736037 18.638577,4.98441704 18.9733993,5.31923926 C19.3082207,5.65406074 19.5190348,5.97648148 19.6926459,6.41051037 C20.1886785,7.66299185 20.0770711,10.6391859 20.0770711,12.0280763 C20.0770711,13.4169667 20.1886785,16.3931607 19.6926459,17.6456422 C19.5190348,18.0796711 19.3082207,18.4020919 18.9733993,18.7369133 C18.638577,19.0717356 18.3161563,19.2825489 17.8821281,19.4561607 C16.6296459,19.9521926 13.6534519,19.8405859 12.2645615,19.8405859 C10.8756711,19.8405859 7.89947704,19.9521926 6.64699556,19.4561607 C6.21296741,19.2825489 5.89054593,19.0717356 5.55572444,18.7369133 C5.22090222,18.4020919 5.01008889,18.0796711 4.83647704,17.6456422 C4.34044519,16.3931607 4.45205259,13.4169667 4.45205259,12.0280763 C4.45205259,10.6391859 4.34044519,7.66299185 4.83647704,6.41051037 C5.01008889,5.97648148 5.22090222,5.65406074 5.55572444,5.31923926 C5.89054593,4.98441704 6.21296741,4.7736037 6.64699556,4.59999185 C7.89947704,4.10396 10.8756711,4.21556667 12.2645615,4.21556667 L12.2645615,4.21556667 Z M21.7883822,12.0280763 C21.7883822,10.7135904 21.800783,9.41150593 21.7263785,8.09702 C21.6519733,6.57172074 21.3047511,5.22003259 20.1886785,4.10396 C19.0726052,2.98788667 17.720917,2.64066444 16.1956178,2.56625926 C14.8811319,2.49185481 13.5790474,2.50425556 12.2645615,2.50425556 C10.9500756,2.50425556 9.64799111,2.49185481 8.33350519,2.56625926 C6.80820593,2.64066444 5.45651778,2.98788667 4.34044519,4.10396 C3.22437259,5.22003259 2.87714963,6.57172074 2.80274444,8.09702 C2.72834,9.41150593 2.74074074,10.7135904 2.74074074,12.0280763 C2.74074074,13.3425622 2.72834,14.6446467 2.80274444,15.9591326 C2.87714963,17.4844319 3.22437259,18.83612 4.34044519,19.9521926 C5.45651778,21.0682659 6.80820593,21.4154881 8.33350519,21.4898933 C9.64799111,21.5642978 10.9500756,21.551897 12.2645615,21.551897 C13.5790474,21.551897 14.8811319,21.5642978 16.1956178,21.4898933 C17.720917,21.4154881 19.0726052,21.0682659 20.1886785,19.9521926 C21.3047511,18.83612 21.6519733,17.4844319 21.7263785,15.9591326 C21.800783,14.6446467 21.7883822,13.3425622 21.7883822,12.0280763 L21.7883822,12.0280763 Z" id="Shape"></path>
        </g>
    </g>
</svg>