<?xml version="1.0" encoding="UTF-8" standalone="no"?>
<svg width="120px" height="80px" viewBox="0 0 120 80" version="1.1" xmlns="http://www.w3.org/2000/svg" xmlns:xlink="http://www.w3.org/1999/xlink">
    <!-- Generator: Sketch 39.1 (31720) - http://www.bohemiancoding.com/sketch -->
    <title>logo</title>
    <desc>Created with Sketch.</desc>
    <defs></defs>
    <g id="logo" stroke="none" stroke-width="1" fill="none" fill-rule="evenodd">
        <g id="Group" fill="#000000">
            <g transform="translate(4.000000, 6.000000)">
                <path d="M1.36,15.08 L1.36,1.66 L5.12,15.08 L6.52,15.08 L10.02,1.66 L10.02,15.08 L11.38,15.08 L11.38,0.28 L9.04,0.28 L5.8,12.9 L2.32,0.28 L0,0.28 L0,15.08 L1.36,15.08 Z M15.8599999,7.68 C15.8599999,12.04 17.6999999,15.34 21.2399999,15.34 C25.1199999,15.34 26.6199999,11.48 26.6199999,7.68 C26.6199999,3.32 24.7999999,0.02 21.2399999,0.02 C17.6999999,0.02 15.8599999,3.32 15.8599999,7.66 L15.8599999,7.68 Z M17.3999999,7.68 C17.3999999,3.62 18.8599999,1.38 21.2399999,1.38 C23.6199999,1.38 25.0999999,3.62 25.0999999,7.68 C25.0999999,11.74 23.6199999,13.98 21.2399999,13.98 C18.8599999,13.98 17.3999999,11.74 17.3999999,7.7 L17.3999999,7.68 Z M31.0199998,0.28 L31.0199998,11.18 C31.0199998,12.58 31.3399998,13.5 32.0399998,14.22 C32.7599998,14.94 33.8199998,15.34 35.2799998,15.34 C36.7199998,15.34 37.7799998,14.94 38.4799998,14.22 C39.1999998,13.5 39.5199998,12.58 39.5199998,11.18 L39.5199998,0.28 L38.0199998,0.28 L38.0199998,11.08 C38.0199998,11.94 37.8999998,12.7 37.2799998,13.3 C36.7599998,13.8 35.9999998,13.96 35.2599998,13.96 C34.5199998,13.96 33.7599998,13.8 33.2599998,13.3 C32.6399998,12.7 32.5199998,11.94 32.5199998,11.08 L32.5199998,0.28 L31.0199998,0.28 Z M43.8799997,11 C43.9599997,13.94 45.7199997,15.34 48.0399997,15.34 C50.4399997,15.34 52.3199997,13.68 52.3199997,11.06 C52.3199997,8.12 50.1599997,7.32 49.0199997,6.92 C47.1199997,6.3 45.6399997,5.84 45.6399997,3.9 C45.6399997,2.36 46.5599997,1.28 48.0599997,1.28 C49.8799997,1.28 50.3999997,2.66 50.5399997,3.76 L51.9799997,3.76 C51.6399997,1.14 50.2199997,0 48.0199997,0 C45.7199997,0 44.0999997,1.56 44.1199997,4.16 C44.1199997,6.82 46.2399997,7.56 47.4999997,8 C48.9599997,8.48 50.7999997,8.96 50.7999997,11.14 C50.7999997,12.96 49.5799997,14.02 47.9999997,14.02 C46.8799997,14.02 45.5199997,13.3 45.3399997,11 L43.8799997,11 Z M58.7799996,15.08 L60.2799996,15.08 L60.2799996,1.66 L63.2799996,1.66 L63.2799996,0.28 L55.7799996,0.28 L55.7799996,1.66 L58.7799996,1.66 L58.7799996,15.08 Z M67.2799995,10.7 L71.7199995,10.7 L72.9799995,15.08 L74.4999995,15.08 L70.2199995,0.28 L68.7399995,0.28 L64.5199995,15.08 L66.0599995,15.08 L67.2799995,10.7 Z M71.3199995,9.34 L67.6799995,9.34 L69.4999995,2.22 L71.3199995,9.34 Z M85.3999994,10.26 C85.3199994,12.04 84.6199994,13.94 82.3399994,13.94 C80.2199994,13.94 78.6599994,12.02 78.6599994,7.82 C78.6599994,3.92 79.7599994,1.42 82.3399994,1.42 C84.5999994,1.42 85.3599994,3.48 85.3999994,5.42 L86.8799994,5.42 C86.8999994,2.62 85.3799994,0.02 82.2599994,0.02 C78.8599994,0.02 77.1199994,3 77.1199994,7.68 C77.1199994,12.68 79.0999994,15.34 82.2599994,15.34 C85.3799994,15.34 86.8799994,12.82 86.8799994,10.26 L85.3999994,10.26 Z M92.6599993,15.08 L92.6599993,8.2 L97.9199993,8.2 L97.9199993,15.08 L99.4399993,15.08 L99.4399993,0.28 L97.9199993,0.28 L97.9199993,6.82 L92.6599993,6.82 L92.6599993,0.28 L91.1599993,0.28 L91.1599993,15.08 L92.6599993,15.08 Z M104.539999,15.08 L111.479999,15.08 L111.479999,13.7 L106.039999,13.7 L106.039999,8.2 L111.479999,8.2 L111.479999,6.82 L106.039999,6.82 L106.039999,1.66 L111.479999,1.66 L111.479999,0.28 L104.539999,0.28 L104.539999,15.08 Z" id="MOUSTACHE"></path>
                <path d="M56.3783694,31.4751703 C50.2615459,36.4166297 39.8122395,40.8193274 31.4561072,38.7900719 C27.8695263,37.9156881 23.1747788,34.9443355 24.3000435,31.0787937 C25.0772028,28.4200461 29.8553033,25.3801774 32.2741415,28.3576857 C32.4237493,28.540217 33.4360067,29.9485449 32.622514,30.0138494 C32.2033449,30.0475722 31.5381243,28.862457 31.0762101,28.6780522 C29.1462689,27.9088514 27.4735998,29.7346996 27.3691415,31.3028094 C27.2352959,33.2520402 29.9538841,33.7932107 31.614264,33.649755 C33.5094748,33.4854234 35.204318,32.6677795 36.5884577,31.5249516 C39.5335949,29.0971783 41.9967812,25.9863847 45.5256562,24.1902446 C49.2944381,22.2731307 52.889568,23.0498255 56.3783694,24.9522191 L56.3821096,24.9498103 C59.8714454,23.0463461 63.4681783,22.2717925 67.2345557,24.1875682 C70.7636979,25.9855818 73.2303572,29.096643 76.1738915,31.523881 C77.5561611,32.6643002 79.25234,33.4846204 81.1467493,33.6473463 C82.8063278,33.7910696 85.5270533,33.2493638 85.3918719,31.3004006 C85.2850091,29.7338967 83.6160802,27.9088514 81.6842689,28.676714 C81.2255606,28.8611188 80.5574013,30.0448958 80.1384993,30.011173 C79.3236709,29.9472067 80.3377984,28.5367376 80.4860704,28.3558122 C82.9081145,25.377501 87.6851464,28.4187079 88.4615042,31.0787937 C89.5875704,34.9419267 84.8928229,37.9156881 81.306242,38.7860572 C72.9495753,40.816651 62.4997346,36.4147562 56.3821096,31.4740998" id="Fill-1"></path>
                <path d="M13.9119996,67.08 L13.9119996,59.699 L15.9799996,67.08 L16.7499996,67.08 L18.6749996,59.699 L18.6749996,67.08 L19.4229996,67.08 L19.4229996,58.94 L18.1359996,58.94 L16.3539996,65.881 L14.4399996,58.94 L13.1639996,58.94 L13.1639996,67.08 L13.9119996,67.08 Z M21.1189996,67.08 L21.9439996,67.08 L21.9439996,58.94 L21.1189996,58.94 L21.1189996,67.08 Z M23.6619996,67.08 L27.0829996,67.08 L27.0829996,66.321 L24.4869996,66.321 L24.4869996,58.94 L23.6619996,58.94 L23.6619996,67.08 Z M28.1959996,67.08 L29.0209996,67.08 L29.0209996,63.153 L31.7379996,67.08 L32.7169996,67.08 L29.8349996,62.966 L32.5079996,58.94 L31.5729996,58.94 L29.0209996,62.878 L29.0209996,58.94 L28.1959996,58.94 L28.1959996,67.08 Z M41.3009996,62.13 L40.2999996,64.22 L38.8919996,62.559 C39.6289996,62.163 40.3549996,61.492 40.3549996,60.546 C40.3549996,59.644 39.6509996,58.797 38.6499996,58.797 C37.6819996,58.797 36.9009996,59.556 36.9009996,60.601 C36.9229996,61.382 37.3299996,61.833 37.7919996,62.372 C36.9669996,62.757 36.0319996,63.538 36.0319996,64.902 C36.0319996,66.101 36.8789996,67.223 38.2209996,67.223 C39.4199996,67.223 40.0139996,66.134 40.4209996,65.507 L41.8069996,67.157 L42.3679996,66.651 L40.7949996,64.814 L42.1149996,62.13 L41.3009996,62.13 Z M38.6499996,59.479 C39.2219996,59.479 39.5959996,60.007 39.5959996,60.535 C39.5959996,61.151 39.2219996,61.569 38.4629996,61.998 C38.0339996,61.525 37.6599996,61.14 37.6599996,60.524 C37.6599996,59.996 37.9899996,59.479 38.6389996,59.479 L38.6499996,59.479 Z M39.9039996,64.913 C39.6619996,65.408 39.1999996,66.442 38.2869996,66.442 C37.4069996,66.442 36.8789996,65.672 36.8679996,64.836 C36.8789996,64.198 37.1759996,63.527 38.2979996,62.977 L39.9039996,64.913 Z M50.6329996,64.429 C50.5889996,65.408 50.2039996,66.453 48.9499996,66.453 C47.7839996,66.453 46.9259996,65.397 46.9259996,63.087 C46.9259996,60.942 47.5309996,59.567 48.9499996,59.567 C50.1929996,59.567 50.6109996,60.7 50.6329996,61.767 L51.4469996,61.767 C51.4579996,60.227 50.6219996,58.797 48.9059996,58.797 C47.0359996,58.797 46.0789996,60.436 46.0789996,63.01 C46.0789996,65.76 47.1679996,67.223 48.9059996,67.223 C50.6219996,67.223 51.4469996,65.837 51.4469996,64.429 L50.6329996,64.429 Z M52.3729996,63.01 C52.3729996,65.408 53.3849996,67.223 55.3319996,67.223 C57.4659996,67.223 58.2909996,65.1 58.2909996,63.01 C58.2909996,60.612 57.2899996,58.797 55.3319996,58.797 C53.3849996,58.797 52.3729996,60.612 52.3729996,62.999 L52.3729996,63.01 Z M53.2199996,63.01 C53.2199996,60.777 54.0229996,59.545 55.3319996,59.545 C56.6409996,59.545 57.4549996,60.777 57.4549996,63.01 C57.4549996,65.243 56.6409996,66.475 55.3319996,66.475 C54.0229996,66.475 53.2199996,65.243 53.2199996,63.021 L53.2199996,63.01 Z M59.3159996,63.01 C59.3159996,65.408 60.3279996,67.223 62.2749996,67.223 C64.4089996,67.223 65.2339996,65.1 65.2339996,63.01 C65.2339996,60.612 64.2329996,58.797 62.2749996,58.797 C60.3279996,58.797 59.3159996,60.612 59.3159996,62.999 L59.3159996,63.01 Z M60.1629996,63.01 C60.1629996,60.777 60.9659996,59.545 62.2749996,59.545 C63.5839996,59.545 64.3979996,60.777 64.3979996,63.01 C64.3979996,65.243 63.5839996,66.475 62.2749996,66.475 C60.9659996,66.475 60.1629996,65.243 60.1629996,63.021 L60.1629996,63.01 Z M66.5889996,67.08 L67.4139996,67.08 L67.4139996,63.153 L70.1309996,67.08 L71.1099996,67.08 L68.2279996,62.966 L70.9009996,58.94 L69.9659996,58.94 L67.4139996,62.878 L67.4139996,58.94 L66.5889996,58.94 L66.5889996,67.08 Z M71.8929996,67.08 L72.7179996,67.08 L72.7179996,58.94 L71.8929996,58.94 L71.8929996,67.08 Z M74.4359996,67.08 L78.2529996,67.08 L78.2529996,66.321 L75.2609996,66.321 L75.2609996,63.296 L78.2529996,63.296 L78.2529996,62.537 L75.2609996,62.537 L75.2609996,59.699 L78.2529996,59.699 L78.2529996,58.94 L74.4359996,58.94 L74.4359996,67.08 Z M82.6789996,67.08 L84.6589996,67.08 C85.2419996,67.08 85.7479996,66.937 86.0779996,66.684 C86.6499996,66.321 86.9799996,65.705 86.9799996,64.836 C86.9799996,64.077 86.6499996,63.065 85.4619996,62.724 C86.0229996,62.526 86.5949996,62.064 86.5949996,60.986 C86.5949996,60.392 86.4299996,59.721 85.8909996,59.347 C85.5829996,59.083 85.1539996,58.94 84.3729996,58.94 L82.6789996,58.94 L82.6789996,67.08 Z M83.5039996,59.677 L84.2299996,59.677 C84.8349996,59.677 85.0769996,59.765 85.2529996,59.897 C85.5059996,60.073 85.7479996,60.48 85.7479996,61.052 C85.7479996,61.525 85.6489996,61.954 85.2419996,62.251 C85.0439996,62.394 84.7579996,62.46 84.4059996,62.46 L83.5039996,62.46 L83.5039996,59.677 Z M83.5039996,63.197 L84.4169996,63.197 C84.9339996,63.197 85.2529996,63.263 85.4949996,63.428 C85.8689996,63.67 86.1439996,64.176 86.1439996,64.803 C86.1329996,65.485 85.9129996,65.914 85.4949996,66.134 C85.2749996,66.277 84.9669996,66.343 84.5159996,66.343 L83.5039996,66.343 L83.5039996,63.197 Z M88.9839996,64.671 L91.4259996,64.671 L92.1189996,67.08 L92.9549996,67.08 L90.6009996,58.94 L89.7869996,58.94 L87.4659996,67.08 L88.3129996,67.08 L88.9839996,64.671 Z M91.2059996,63.923 L89.2039996,63.923 L90.2049996,60.007 L91.2059996,63.923 Z M93.8699996,67.08 L94.6949996,67.08 L94.6949996,59.699 L95.3989996,59.699 C95.9049996,59.699 96.4659996,59.71 96.8179996,59.974 C97.3019996,60.337 97.4339996,60.942 97.4339996,61.47 C97.4339996,62.02 97.3019996,62.515 96.9609996,62.845 C96.6419996,63.142 96.2459996,63.274 95.6849996,63.285 C95.5859996,63.296 95.5089996,63.296 95.3989996,63.296 L97.2139996,67.08 L98.1379996,67.08 L96.5099996,63.802 C97.1149996,63.714 97.5989996,63.373 97.9179996,62.867 C98.1929996,62.427 98.2809996,61.899 98.2809996,61.393 C98.2809996,60.535 97.9619996,59.853 97.4339996,59.424 C97.1259996,59.149 96.6309996,58.94 95.4209996,58.94 L93.8699996,58.94 L93.8699996,67.08 Z" id="MILK-&amp;-COOKIE-BUS"></path>
            </g>
        </g>
    </g>
</svg>