<?xml version="1.0" encoding="UTF-8"?>
<svg width="71px" height="32px" viewBox="0 0 71 32" version="1.1" xmlns="http://www.w3.org/2000/svg" xmlns:xlink="http://www.w3.org/1999/xlink">
    <!-- Generator: Sketch 40 (33762) - http://www.bohemiancoding.com/sketch -->
    <title>moustache-mark</title>
    <desc>Created with Sketch.</desc>
    <defs></defs>
    <g id="logo" stroke="none" stroke-width="1" fill="none" fill-rule="evenodd">
        <g id="moustache-mark" fill="#000000">
            <path d="M35.9976597,15.8092463 C30.3077475,20.4058264 20.5877295,24.5012467 12.8147966,22.6136189 C9.47853396,21.800261 5.11144689,19.036288 6.15817601,15.440534 C6.88109505,12.9673483 11.3257176,10.1396411 13.5757379,12.9093402 C13.7149042,13.0791321 14.656513,14.3891687 13.8997965,14.4499153 C13.5098824,14.4812845 12.8910896,13.378882 12.4614137,13.2073474 C10.6661689,12.4918314 9.11024039,14.1902482 9.01307251,15.6489149 C8.88856841,17.4621031 11.4174182,17.9655037 12.9619153,17.8320602 C14.7248536,17.6791977 16.3014086,16.9186197 17.588945,15.8555532 C20.3285323,13.5972214 22.6198055,10.7035394 25.9023897,9.03275732 C29.408137,7.24944455 32.7523521,7.97193145 35.9976597,9.74155133 L36.0011388,9.73931068 C39.2469434,7.96869495 42.5926495,7.24819974 46.0961602,9.03026771 C49.378993,10.7027925 51.6734968,13.5967235 54.411593,15.8545573 C55.6973899,16.9153832 57.2751874,17.6784508 59.0373802,17.8298196 C60.5811317,17.963512 63.1119696,17.4596135 62.986223,15.6466743 C62.8868185,14.1895014 61.3343691,12.4918314 59.5373847,13.2061026 C59.110691,13.3776372 58.4891646,14.4787949 58.099499,14.4474257 C57.3415399,14.3879238 58.2848884,13.0758956 58.4228121,12.9075975 C60.6758145,10.1371515 65.119443,12.9661035 65.8416165,15.440534 C66.8890912,19.0340474 62.5220041,21.800261 59.1857414,22.6098845 C51.4123115,24.4987571 41.6917965,20.4040837 36.0011388,15.8082504" id="Fill-1"></path>
        </g>
    </g>
</svg>