<?xml version="1.0" encoding="UTF-8" standalone="no"?>
<svg width="24px" height="24px" viewBox="0 0 24 24" version="1.1" xmlns="http://www.w3.org/2000/svg" xmlns:xlink="http://www.w3.org/1999/xlink">
    <!-- Generator: Sketch 39.1 (31720) - http://www.bohemiancoding.com/sketch -->
    <title>twitter</title>
    <desc>Created with Sketch.</desc>
    <defs></defs>
    <g id="Page-1" stroke="none" stroke-width="1" fill="none" fill-rule="evenodd">
        <g id="twitter" fill="#000000">
            <path d="M18.4835362,8.831559 C18.1229585,9.39145556 17.6593592,9.87322667 17.1313708,10.2508316 C17.1442485,10.3680193 17.1442485,10.4852071 17.1442485,10.6023941 C17.1442485,14.2221906 14.4141631,18.388862 9.44334692,18.388862 C7.91089308,18.388862 6.49433923,17.9331324 5.29670692,17.1649019 C5.50275154,17.1909442 5.72167308,17.203965 5.94059538,17.203965 C7.21549385,17.203965 8.37449231,16.7612562 9.30169154,16.0320888 C8.11693692,16.0060464 7.12534923,15.2117751 6.77765,14.1310443 C6.94506077,14.1570859 7.11247154,14.1831282 7.27988231,14.1831282 C7.52456,14.1831282 7.70484846,14.1440651 7.93664846,14.0789612 C6.70038308,13.8315649 5.70879538,12.7247926 5.70879538,11.3966662 L5.70879538,11.3706247 C6.12088385,11.5659371 6.54585,11.6961457 6.99657154,11.7091664 C6.26253923,11.2143746 5.82469538,10.3810401 5.82469538,9.43051789 C5.82469538,8.935726 5.96635077,8.45395411 6.19815077,8.05030844 C7.53743769,9.71697656 9.53349077,10.7977073 11.7870992,10.9148951 C11.7355885,10.7195819 11.7227108,10.4982279 11.7227108,10.2898939 C11.7227108,8.77947589 12.9332208,7.55551578 14.4270408,7.55551578 C15.1997069,7.55551578 15.9079838,7.88103678 16.3973385,8.41489178 C17.0154715,8.297704 17.5949708,8.06332922 18.1229585,7.75082822 C17.9169146,8.38885022 17.4919485,8.935726 16.9253269,9.27426778 C17.4790708,9.19614311 17.9941815,9.05291378 18.4835362,8.831559 L18.4835362,8.831559 Z M21.7802431,6.30551411 C21.7802431,4.23519956 20.1190123,2.55550989 18.0714477,2.55550989 L5.70879538,2.55550989 C3.66123154,2.55550989 2,4.23519956 2,6.30551411 L2,18.8055292 C2,20.8758446 3.66123154,22.5555334 5.70879538,22.5555334 L18.0714477,22.5555334 C20.1190123,22.5555334 21.7802431,20.8758446 21.7802431,18.8055292 L21.7802431,6.30551411 Z" id="Shape"></path>
        </g>
    </g>
</svg>