<?xml version="1.0" encoding="UTF-8" standalone="no"?>
<svg width="216px" height="123px" viewBox="0 0 216 123" version="1.1" xmlns="http://www.w3.org/2000/svg" xmlns:xlink="http://www.w3.org/1999/xlink">
    <!-- Generator: Sketch 39.1 (31720) - http://www.bohemiancoding.com/sketch -->
    <title>logo</title>
    <desc>Created with Sketch.</desc>
    <defs></defs>
    <g id="Page-1" stroke="none" stroke-width="1" fill="none" fill-rule="evenodd">
        <g id="logo">
            <g id="mo-logo" transform="translate(15.000000, 17.000000)">
                <g id="Artboard-8">
                    <g id="Page-1">
                        <g id="Artboard-8">
                            <g id="Group">
                                <g id="mo-logo-full">
                                    <g id="Group-11">
                                        <path d="M92.9516765,50.0985115 C82.513794,58.5142045 64.6828675,66.012344 50.4237795,62.556363 C44.3035588,61.0672185 36.2923383,56.006772 38.2125147,49.4234511 C39.5386765,44.8953953 47.6921324,39.7182604 51.819691,44.7891907 C52.0749855,45.1000558 53.8023235,47.4985488 52.414162,47.6097674 C51.6988825,47.6672 50.5637355,45.6488558 49.7755147,45.3348 C46.4822206,44.0247907 43.6279412,47.1343535 43.4496912,49.8049674 C43.2212941,53.1246605 47.860353,54.0463165 50.693662,53.802 C53.927691,53.52213 56.819809,52.1296185 59.1817355,50.183293 C64.2073825,46.0486046 68.4106175,40.750679 74.4323675,37.6917116 C80.8635,34.4267163 86.998309,35.7494883 92.9516765,38.9894139 L92.958059,38.9853116 C98.912338,35.7435628 105.049883,34.4244372 111.476912,37.6871535 C117.499118,40.7493116 121.70828,46.047693 126.731191,50.18147 C129.089927,52.123693 131.984324,53.520763 135.216986,53.7978975 C138.048927,54.04267 142.691633,53.1201025 142.460956,49.8008651 C142.278603,47.132986 139.430706,44.0247907 136.134221,45.3325209 C135.351471,45.6465767 134.211309,47.6626418 133.496486,47.6052093 C132.106044,47.4962697 133.836574,45.0941302 134.089588,44.786 C138.222618,39.7137023 146.37425,44.8931163 147.699044,49.4234511 C149.620588,56.00267 141.609368,61.0672185 135.489147,62.5495255 C121.229147,66.007786 103.397309,58.511014 92.958059,50.0966885" id="Fill-1" fill="#000000"></path>
                                        <polyline id="Fill-2" fill="#0A0A08" points="0 24.2410977 0 0.641786045 3.69811764 0.641786045 9.24939705 20.7650605 14.4163676 0.641786045 18.1486764 0.641786045 18.1486764 24.2410977 15.9795883 24.2410977 15.9795883 2.84154419 10.3991324 24.2410977 8.16485295 24.2410977 2.16863236 2.84154419 2.16863236 24.2410977 0 24.2410977"></polyline>
                                        <path d="M28.7620735,12.4724372 C28.7620735,18.9158233 31.0916323,22.4871256 34.8868529,22.4871256 C38.6825294,22.4871256 41.0435441,18.9158233 41.0435441,12.4409861 C41.0435441,5.9679721 38.6825294,2.39575814 34.8868529,2.39575814 C31.0916323,2.39575814 28.7620735,5.9679721 28.7620735,12.4409861 L28.7620735,12.4724372 L28.7620735,12.4724372 L28.7620735,12.4724372 Z M26.3066912,12.4090791 C26.3066912,5.48891165 29.2412059,0.226995349 34.8868529,0.226995349 C40.5644117,0.226995349 43.4674706,5.48891165 43.4674706,12.4409861 C43.4674706,18.500121 41.075,24.654521 34.8868529,24.654521 C29.2412059,24.654521 26.3066912,19.3939721 26.3066912,12.4409861 L26.3066912,12.4090791 L26.3066912,12.4090791 L26.3066912,12.4090791 Z" id="Fill-3" fill="#0A0A08"></path>
                                        <path d="M53.8916765,0.641786045 L53.8916765,17.8619814 C53.8916765,19.2344372 54.0813235,20.4464465 55.071044,21.4018326 C55.8683825,22.1990512 57.0814855,22.4556744 58.260853,22.4556744 C59.4402205,22.4556744 60.6515,22.1990512 61.4825735,21.4018326 C62.4700145,20.4464465 62.6642205,19.2344372 62.6642205,17.8619814 L62.6642205,0.641786045 L65.054412,0.641786045 L65.054412,18.0215163 C65.054412,20.2545489 64.5438235,21.721814 63.3963675,22.8700093 C62.2776325,24.0177489 60.5881325,24.654521 58.2927645,24.654521 C55.963206,24.654521 54.27325,24.0177489 53.125794,22.8700093 C52.009794,21.721814 51.499206,20.2545489 51.499206,18.0215163 L51.499206,0.641786045 L53.8916765,0.641786045" id="Fill-4" fill="#0A0A08"></path>
                                        <path d="M75.349603,17.735721 C75.6386325,21.4018326 77.8077205,22.5504837 79.5925,22.5504837 C82.1139855,22.5504837 84.0615145,20.8598698 84.0615145,17.9581582 C84.0615145,14.4816651 81.1242645,13.7172651 78.797441,12.9524093 C76.7888235,12.25 73.404809,11.0708093 73.404809,6.82854885 C73.372897,2.68246512 75.957294,0.195544186 79.626691,0.195544186 C83.135162,0.195544186 85.3986175,2.01287442 85.9411175,6.1904093 L83.6434705,6.1904093 C83.421912,4.43643721 82.592662,2.23622326 79.689603,2.23622326 C77.2971325,2.23622326 75.8287355,3.95874419 75.8287355,6.41330235 C75.8287355,9.5064558 78.18975,10.2407721 81.2213675,11.2289768 C83.037603,11.8671163 86.483162,13.1420279 86.483162,17.8305303 C86.483162,22.008521 83.4852795,24.654521 79.658147,24.654521 C75.957294,24.654521 73.151338,22.4228558 73.0227795,17.735721 L75.349603,17.735721" id="Fill-5" fill="#0A0A08"></path>
                                        <polyline id="Fill-6" fill="#0A0A08" points="97.801809 2.84154419 93.019147 2.84154419 93.019147 0.641786045 104.97922 0.641786045 104.97922 2.84154419 100.194279 2.84154419 100.194279 24.2410977 97.801809 24.2410977 97.801809 2.84154419"></polyline>
                                        <path d="M115.91675,3.73539535 L113.011412,15.0883535 L118.817529,15.0883535 L115.91675,3.73539535 L115.91675,3.73539535 L115.91675,3.73539535 Z M110.428382,24.2410977 L107.973,24.2410977 L114.703191,0.641786045 L117.064206,0.641786045 L123.886941,24.2410977 L121.463014,24.2410977 L119.456676,17.2566605 L112.374088,17.2566605 L110.428382,24.2410977 L110.428382,24.2410977 L110.428382,24.2410977 Z" id="Fill-7" fill="#0A0A08"></path>
                                        <path d="M144.646912,16.5556186 C144.646912,20.6374326 142.254441,24.654521 137.279853,24.654521 C132.241441,24.654521 129.083088,20.4136279 129.083088,12.4409861 C129.083088,4.97885582 131.859868,0.226995349 137.279853,0.226995349 C142.254441,0.226995349 144.680647,4.37216744 144.646912,8.8368651 L142.290456,8.8368651 C142.225265,5.7432558 141.011706,2.45866047 137.408412,2.45866047 C133.29453,2.45866047 131.538927,6.4456651 131.538927,12.6647907 C131.538927,19.3611535 134.0285,22.4228558 137.408412,22.4228558 C141.043618,22.4228558 142.161897,19.3939721 142.290456,16.5556186 L144.646912,16.5556186" id="Fill-8" fill="#0A0A08"></path>
                                        <polyline id="Fill-9" fill="#0A0A08" points="152.49128 24.2410977 152.49128 0.641786045 154.881015 0.641786045 154.881015 11.0708093 163.270162 11.0708093 163.270162 0.641786045 165.694088 0.641786045 165.694088 24.2410977 163.270162 24.2410977 163.270162 13.2701117 154.881015 13.2701117 154.881015 24.2410977 152.49128 24.2410977"></polyline>
                                        <polyline id="Fill-10" fill="#0A0A08" points="174.843647 0.641786045 185.912015 0.641786045 185.912015 2.84154419 177.236118 2.84154419 177.236118 11.0708093 185.912015 11.0708093 185.912015 13.2701117 177.236118 13.2701117 177.236118 22.0413396 185.912015 22.0413396 185.912015 24.2410977 174.843647 24.2410977 174.843647 0.641786045"></polyline>
                                        <path d="M18.036,88 L18.036,76.462 L21.114,88 L22.59,88 L25.506,76.462 L25.506,88 L27.108,88 L27.108,74.68 L24.426,74.68 L21.852,85.174 L19.116,74.68 L16.434,74.68 L16.434,88 L18.036,88 Z M30.52,88 L32.302,88 L32.302,74.68 L30.52,74.68 L30.52,88 Z M35.75,88 L41.546,88 L41.546,86.362 L37.532,86.362 L37.532,74.68 L35.75,74.68 L35.75,88 Z M44.094,88 L45.876,88 L45.876,81.664 L49.89,88 L51.978,88 L47.568,81.232 L51.654,74.68 L49.674,74.68 L45.876,80.998 L45.876,74.68 L44.094,74.68 L44.094,88 Z M67.46,80.08 L66.02,82.996 L64.076,80.656 C65.174,80.044 66.272,78.946 66.272,77.398 C66.272,75.886 65.102,74.428 63.374,74.428 C61.772,74.428 60.368,75.652 60.368,77.524 C60.386,78.694 61.016,79.504 61.718,80.278 C60.368,80.908 59,82.222 59,84.4 C59,86.416 60.44,88.252 62.726,88.252 C64.454,88.252 65.444,86.884 66.236,85.75 L68.144,88.09 L69.368,87.01 L67.082,84.274 L69.224,80.08 L67.46,80.08 Z M63.356,75.886 C64.148,75.886 64.67,76.642 64.67,77.398 C64.67,78.226 64.148,78.874 63.158,79.468 C62.51,78.784 61.97,78.154 61.97,77.344 C61.97,76.588 62.474,75.886 63.338,75.886 L63.356,75.886 Z M65.156,84.472 C64.76,85.246 64.094,86.524 62.87,86.524 C61.61,86.524 60.818,85.444 60.818,84.238 C60.818,83.302 61.322,82.312 62.816,81.574 L65.156,84.472 Z M84.436,83.41 C84.364,84.94 83.824,86.56 81.988,86.56 C80.278,86.56 79,85.012 79,81.43 C79,78.01 79.99,76.12 81.988,76.12 C83.716,76.12 84.4,77.578 84.436,79.504 L86.236,79.504 C86.254,76.804 84.796,74.428 81.862,74.428 C78.856,74.428 77.182,76.984 77.182,81.34 C77.182,85.894 79,88.252 81.862,88.252 C84.778,88.252 86.236,85.93 86.236,83.41 L84.436,83.41 Z M88.478,81.34 C88.478,85.336 90.116,88.252 93.338,88.252 C96.758,88.252 98.198,84.994 98.198,81.34 C98.198,77.344 96.56,74.428 93.338,74.428 C90.116,74.428 88.478,77.344 88.478,81.322 L88.478,81.34 Z M90.296,81.34 C90.296,77.83 91.43,76.066 93.338,76.066 C95.246,76.066 96.362,77.83 96.362,81.34 C96.362,84.85 95.246,86.614 93.338,86.614 C91.43,86.614 90.296,84.85 90.296,81.358 L90.296,81.34 Z M100.494,81.34 C100.494,85.336 102.132,88.252 105.354,88.252 C108.774,88.252 110.214,84.994 110.214,81.34 C110.214,77.344 108.576,74.428 105.354,74.428 C102.132,74.428 100.494,77.344 100.494,81.322 L100.494,81.34 Z M102.312,81.34 C102.312,77.83 103.446,76.066 105.354,76.066 C107.262,76.066 108.378,77.83 108.378,81.34 C108.378,84.85 107.262,86.614 105.354,86.614 C103.446,86.614 102.312,84.85 102.312,81.358 L102.312,81.34 Z M113.05,88 L114.832,88 L114.832,81.664 L118.846,88 L120.934,88 L116.524,81.232 L120.61,74.68 L118.63,74.68 L114.832,80.998 L114.832,74.68 L113.05,74.68 L113.05,88 Z M122.924,88 L124.706,88 L124.706,74.68 L122.924,74.68 L122.924,88 Z M128.154,88 L134.472,88 L134.472,86.362 L129.936,86.362 L129.936,81.952 L134.472,81.952 L134.472,80.314 L129.936,80.314 L129.936,76.318 L134.472,76.318 L134.472,74.68 L128.154,74.68 L128.154,88 Z M143.33,88 L146.948,88 C147.974,88 148.856,87.694 149.414,87.19 C150.26,86.56 150.728,85.57 150.746,84.256 C150.746,82.708 149.99,81.322 148.19,80.818 C149.234,80.548 150.134,79.738 150.134,78.028 C150.134,77.056 149.864,76.048 149.072,75.436 C148.532,74.95 147.758,74.68 146.498,74.68 L143.33,74.68 L143.33,88 Z M145.112,76.264 L146.12,76.264 C146.966,76.264 147.362,76.39 147.632,76.606 C147.992,76.876 148.316,77.452 148.316,78.226 C148.316,78.928 148.154,79.504 147.614,79.918 C147.326,80.152 146.876,80.26 146.318,80.26 L145.112,80.26 L145.112,76.264 Z M145.112,81.844 L146.462,81.844 C147.218,81.844 147.704,81.97 148.064,82.258 C148.586,82.618 148.928,83.32 148.91,84.184 C148.91,85.102 148.622,85.714 148.082,86.038 C147.74,86.29 147.254,86.416 146.57,86.416 L145.112,86.416 L145.112,81.844 Z M154.968,84.508 L158.658,84.508 L159.648,88 L161.466,88 L157.632,74.68 L155.922,74.68 L152.178,88 L153.996,88 L154.968,84.508 Z M158.19,82.87 L155.418,82.87 L156.804,77.11 L158.19,82.87 Z M163.636,88 L165.418,88 L165.418,76.318 L166.408,76.318 C167.182,76.318 167.956,76.372 168.442,76.75 C169.144,77.29 169.324,78.136 169.324,78.946 C169.324,79.702 169.126,80.458 168.604,80.944 C168.136,81.394 167.524,81.592 166.75,81.61 C166.588,81.628 166.444,81.628 166.228,81.628 L169.18,88 L171.178,88 L168.55,82.654 C169.432,82.438 170.152,81.898 170.62,81.052 C171.016,80.368 171.16,79.558 171.16,78.766 C171.16,77.398 170.674,76.336 169.864,75.58 C169.342,75.076 168.406,74.68 166.462,74.68 L163.636,74.68 L163.636,88 Z" id="MILK-&amp;-COOKIE-BAR" fill="#323232"></path>
                                    </g>
                                </g>
                            </g>
                        </g>
                    </g>
                </g>
            </g>
        </g>
    </g>
</svg>