<svg width="0" height="0" style="position:absolute"><symbol viewBox="0 0 24 24" id="close"><title>close</title><path d="M19.918 21.332a1 1 0 0 0 1.414-1.414L4.082 2.668a1 1 0 0 0-1.414 1.414l17.25 17.25z"/><path d="M2.668 19.918a1 1 0 0 0 1.414 1.414l17.25-17.25a1 1 0 1 0-1.414-1.414l-17.25 17.25z"/></symbol><symbol viewBox="0 0 24 24" id="email"><title>email</title><g transform="translate(0 3.667)"><path d="M21.167 14.708H2.833a.875.875 0 0 1-.875-.875v-11c0-.483.392-.875.875-.875h18.334c.483 0 .875.392.875.875v11a.875.875 0 0 1-.875.875zm1.875-11.875c0-1.035-.84-1.875-1.875-1.875H2.833c-1.035 0-1.875.84-1.875 1.875v11c0 1.036.84 1.875 1.875 1.875h18.334c1.035 0 1.875-.84 1.875-1.875v-11z"/><path d="M19.792 4.708l-.5-.5v3.667l.5-.5h-3.667l.5.5V4.208l-.5.5h3.667zm-4.167-1v4.667h4.667V3.708h-4.667zM6.958 5.625v-1H5.125v1zM13.375 11.125v-1h-8.25v1zM16.125 12.958v-1h-11v1z"/></g></symbol><symbol viewBox="0 0 24 24" id="facebook"><title>facebook</title><path d="M18.071 2.556H5.71C3.66 2.556 2 4.236 2 6.306v12.5c0 2.07 1.661 3.75 3.709 3.75h6.85v-7.748H9.985v-3.02h2.576V9.56c0-2.578 1.57-3.985 3.85-3.985 1.082 0 2.022.078 2.292.118v2.695l-1.57.013c-1.25 0-1.482.586-1.482 1.458v1.927h2.95l-.387 3.021H15.65v7.748h2.421c2.048 0 3.71-1.68 3.71-3.75v-12.5c0-2.07-1.662-3.75-3.71-3.75z"/></symbol><symbol viewBox="0 0 24 24" id="instagram"><title>instagram</title><path d="M15.44 12.028a3.18 3.18 0 0 1-3.175 3.175 3.18 3.18 0 0 1-3.175-3.175 3.18 3.18 0 0 1 3.175-3.175 3.18 3.18 0 0 1 3.174 3.175zm1.71 0a4.88 4.88 0 0 0-4.885-4.886 4.88 4.88 0 0 0-4.886 4.886 4.88 4.88 0 0 0 4.886 4.886 4.88 4.88 0 0 0 4.885-4.886zm1.34-5.084c0-.633-.509-1.141-1.141-1.141-.633 0-1.141.508-1.141 1.14 0 .633.508 1.142 1.14 1.142.633 0 1.142-.509 1.142-1.141zm-6.225-2.728c1.388 0 4.365-.112 5.617.384.434.174.757.384 1.091.72.335.334.546.656.72 1.09.496 1.253.384 4.23.384 5.618 0 1.389.112 4.365-.384 5.618a3.045 3.045 0 0 1-.72 1.09 3.045 3.045 0 0 1-1.09.72c-1.253.496-4.23.385-5.618.385-1.39 0-4.366.111-5.618-.385a3.045 3.045 0 0 1-1.091-.72 3.045 3.045 0 0 1-.72-1.09c-.496-1.253-.384-4.229-.384-5.618 0-1.389-.112-4.365.384-5.617.174-.435.385-.757.72-1.092A3.045 3.045 0 0 1 6.647 4.6c1.252-.496 4.229-.384 5.618-.384zm9.523 7.812c0-1.314.013-2.616-.062-3.931-.074-1.525-.421-2.877-1.537-3.993-1.116-1.116-2.468-1.463-3.993-1.538-1.315-.074-2.617-.062-3.931-.062-1.315 0-2.617-.012-3.931.062-1.526.075-2.877.422-3.994 1.538C3.224 5.22 2.877 6.572 2.803 8.097c-.075 1.315-.062 2.617-.062 3.931 0 1.315-.013 2.617.062 3.931.074 1.525.421 2.877 1.537 3.993 1.117 1.116 2.468 1.463 3.994 1.538 1.314.074 2.616.062 3.93.062 1.315 0 2.617.012 3.932-.062 1.525-.075 2.877-.422 3.993-1.538s1.463-2.468 1.537-3.993c.075-1.314.062-2.616.062-3.93z"/></symbol><symbol viewBox="0 0 120 80" id="logo"><title>logo</title><g transform="translate(4 6)"><path d="M1.36 15.08V1.66l3.76 13.42h1.4l3.5-13.42v13.42h1.36V.28H9.04L5.8 12.9 2.32.28H0v14.8h1.36zm14.5-7.4c0 4.36 1.84 7.66 5.38 7.66 3.88 0 5.38-3.86 5.38-7.66 0-4.36-1.82-7.66-5.38-7.66-3.54 0-5.38 3.3-5.38 7.64v.02zm1.54 0c0-4.06 1.46-6.3 3.84-6.3s3.86 2.24 3.86 6.3-1.48 6.3-3.86 6.3-3.84-2.24-3.84-6.28v-.02zM31.02.28v10.9c0 1.4.32 2.32 1.02 3.04.72.72 1.78 1.12 3.24 1.12 1.44 0 2.5-.4 3.2-1.12.72-.72 1.04-1.64 1.04-3.04V.28h-1.5v10.8c0 .86-.12 1.62-.74 2.22-.52.5-1.28.66-2.02.66s-1.5-.16-2-.66c-.62-.6-.74-1.36-.74-2.22V.28h-1.5zM43.88 11c.08 2.94 1.84 4.34 4.16 4.34 2.4 0 4.28-1.66 4.28-4.28 0-2.94-2.16-3.74-3.3-4.14-1.9-.62-3.38-1.08-3.38-3.02 0-1.54.92-2.62 2.42-2.62 1.82 0 2.34 1.38 2.48 2.48h1.44C51.64 1.14 50.22 0 48.02 0c-2.3 0-3.92 1.56-3.9 4.16 0 2.66 2.12 3.4 3.38 3.84 1.46.48 3.3.96 3.3 3.14 0 1.82-1.22 2.88-2.8 2.88-1.12 0-2.48-.72-2.66-3.02h-1.46zm14.9 4.08h1.5V1.66h3V.28h-7.5v1.38h3v13.42zm8.5-4.38h4.44l1.26 4.38h1.52L70.22.28h-1.48l-4.22 14.8h1.54l1.22-4.38zm4.04-1.36h-3.64l1.82-7.12 1.82 7.12zm14.08.92c-.08 1.78-.78 3.68-3.06 3.68-2.12 0-3.68-1.92-3.68-6.12 0-3.9 1.1-6.4 3.68-6.4 2.26 0 3.02 2.06 3.06 4h1.48c.02-2.8-1.5-5.4-4.62-5.4-3.4 0-5.14 2.98-5.14 7.66 0 5 1.98 7.66 5.14 7.66 3.12 0 4.62-2.52 4.62-5.08H85.4zm7.26 4.82V8.2h5.26v6.88h1.52V.28h-1.52v6.54h-5.26V.28h-1.5v14.8h1.5zm11.88 0h6.94V13.7h-5.44V8.2h5.44V6.82h-5.44V1.66h5.44V.28h-6.94v14.8zM56.378 31.475c-6.116 4.942-16.566 9.344-24.922 7.315-3.586-.874-8.281-3.846-7.156-7.711.777-2.659 5.555-5.699 7.974-2.721.15.182 1.162 1.59.349 1.656-.42.034-1.085-1.152-1.547-1.336-1.93-.77-3.602 1.057-3.707 2.625-.134 1.949 2.585 2.49 4.245 2.347 1.895-.165 3.59-.982 4.974-2.125 2.946-2.428 5.409-5.539 8.938-7.335 3.768-1.917 7.364-1.14 10.852.762l.004-.002c3.49-1.904 7.086-2.678 10.853-.762 3.529 1.798 5.995 4.909 8.939 7.336 1.382 1.14 3.078 1.96 4.973 2.123 1.66.144 4.38-.398 4.245-2.347-.107-1.566-1.776-3.391-3.708-2.623-.458.184-1.127 1.368-1.546 1.334-.814-.064.2-1.474.348-1.655 2.422-2.978 7.2.063 7.976 2.723 1.126 3.863-3.57 6.837-7.156 7.707-8.356 2.03-18.806-2.371-24.924-7.312M13.912 67.08v-7.381l2.068 7.381h.77l1.925-7.381v7.381h.748v-8.14h-1.287l-1.782 6.941-1.914-6.941h-1.276v8.14h.748zm7.207 0h.825v-8.14h-.825v8.14zm2.543 0h3.421v-.759h-2.596V58.94h-.825v8.14zm4.534 0h.825v-3.927l2.717 3.927h.979l-2.882-4.114 2.673-4.026h-.935l-2.552 3.938V58.94h-.825v8.14zm13.105-4.95L40.3 64.22l-1.408-1.661c.737-.396 1.463-1.067 1.463-2.013 0-.902-.704-1.749-1.705-1.749-.968 0-1.749.759-1.749 1.804.022.781.429 1.232.891 1.771-.825.385-1.76 1.166-1.76 2.53 0 1.199.847 2.321 2.189 2.321 1.199 0 1.793-1.089 2.2-1.716l1.386 1.65.561-.506-1.573-1.837 1.32-2.684h-.814zm-2.651-2.651c.572 0 .946.528.946 1.056 0 .616-.374 1.034-1.133 1.463-.429-.473-.803-.858-.803-1.474 0-.528.33-1.045.979-1.045h.011zm1.254 5.434c-.242.495-.704 1.529-1.617 1.529-.88 0-1.408-.77-1.419-1.606.011-.638.308-1.309 1.43-1.859l1.606 1.936zm10.729-.484c-.044.979-.429 2.024-1.683 2.024-1.166 0-2.024-1.056-2.024-3.366 0-2.145.605-3.52 2.024-3.52 1.243 0 1.661 1.133 1.683 2.2h.814c.011-1.54-.825-2.97-2.541-2.97-1.87 0-2.827 1.639-2.827 4.213 0 2.75 1.089 4.213 2.827 4.213 1.716 0 2.541-1.386 2.541-2.794h-.814zm1.74-1.419c0 2.398 1.012 4.213 2.959 4.213 2.134 0 2.959-2.123 2.959-4.213 0-2.398-1.001-4.213-2.959-4.213-1.947 0-2.959 1.815-2.959 4.202v.011zm.847 0c0-2.233.803-3.465 2.112-3.465 1.309 0 2.123 1.232 2.123 3.465 0 2.233-.814 3.465-2.123 3.465-1.309 0-2.112-1.232-2.112-3.454v-.011zm6.096 0c0 2.398 1.012 4.213 2.959 4.213 2.134 0 2.959-2.123 2.959-4.213 0-2.398-1.001-4.213-2.959-4.213-1.947 0-2.959 1.815-2.959 4.202v.011zm.847 0c0-2.233.803-3.465 2.112-3.465 1.309 0 2.123 1.232 2.123 3.465 0 2.233-.814 3.465-2.123 3.465-1.309 0-2.112-1.232-2.112-3.454v-.011zm6.426 4.07h.825v-3.927l2.717 3.927h.979l-2.882-4.114 2.673-4.026h-.935l-2.552 3.938V58.94h-.825v8.14zm5.304 0h.825v-8.14h-.825v8.14zm2.543 0h3.817v-.759h-2.992v-3.025h2.992v-.759h-2.992v-2.838h2.992v-.759h-3.817v8.14zm8.243 0h1.98c.583 0 1.089-.143 1.419-.396.572-.363.902-.979.902-1.848 0-.759-.33-1.771-1.518-2.112.561-.198 1.133-.66 1.133-1.738 0-.594-.165-1.265-.704-1.639-.308-.264-.737-.407-1.518-.407h-1.694v8.14zm.825-7.403h.726c.605 0 .847.088 1.023.22.253.176.495.583.495 1.155 0 .473-.099.902-.506 1.199-.198.143-.484.209-.836.209h-.902v-2.783zm0 3.52h.913c.517 0 .836.066 1.078.231.374.242.649.748.649 1.375-.011.682-.231 1.111-.649 1.331-.22.143-.528.209-.979.209h-1.012v-3.146zm5.48 1.474h2.442l.693 2.409h.836l-2.354-8.14h-.814l-2.321 8.14h.847l.671-2.409zm2.222-.748h-2.002l1.001-3.916 1.001 3.916zm2.664 3.157h.825v-7.381h.704c.506 0 1.067.011 1.419.275.484.363.616.968.616 1.496 0 .55-.132 1.045-.473 1.375-.319.297-.715.429-1.276.44-.099.011-.176.011-.286.011l1.815 3.784h.924l-1.628-3.278c.605-.088 1.089-.429 1.408-.935.275-.44.363-.968.363-1.474 0-.858-.319-1.54-.847-1.969-.308-.275-.803-.484-2.013-.484H93.87v8.14z"/></g></symbol><symbol viewBox="0 0 71 32" id="moustache-mark"><title>moustache-mark</title><path d="M35.998 15.81c-5.69 4.596-15.41 8.691-23.183 6.804-3.336-.814-7.704-3.578-6.657-7.173.723-2.474 5.168-5.301 7.418-2.532.139.17 1.08 1.48.324 1.54-.39.032-1.009-1.07-1.439-1.242-1.795-.715-3.35.983-3.448 2.442-.124 1.813 2.404 2.317 3.949 2.183 1.763-.153 3.34-.913 4.627-1.976 2.74-2.259 5.03-5.152 8.313-6.823 3.506-1.784 6.85-1.061 10.096.709L36 9.739c3.246-1.77 6.592-2.49 10.095-.709 3.283 1.673 5.577 4.567 8.316 6.825 1.285 1.06 2.863 1.823 4.625 1.975 1.544.134 4.075-.37 3.95-2.183-.1-1.457-1.653-3.155-3.45-2.44-.426.17-1.048 1.272-1.438 1.24-.757-.06.186-1.371.324-1.54 2.253-2.77 6.696.06 7.419 2.534 1.047 3.593-3.32 6.36-6.656 7.169-7.774 1.889-17.494-2.206-23.185-6.802"/></symbol><symbol viewBox="0 0 24 24" id="twitter"><title>twitter</title><path d="M18.484 8.832a5.233 5.233 0 0 1-1.353 1.419c.013.117.013.234.013.351 0 3.62-2.73 7.787-7.7 7.787a7.646 7.646 0 0 1-4.147-1.224 5.408 5.408 0 0 0 4.005-1.133 2.725 2.725 0 0 1-2.524-1.901c.167.026.334.052.502.052.245 0 .425-.039.657-.104-1.237-.247-2.228-1.354-2.228-2.682v-.026c.412.195.837.325 1.288.338-.734-.495-1.172-1.328-1.172-2.278 0-.495.141-.977.373-1.38a7.656 7.656 0 0 0 5.59 2.864 2.513 2.513 0 0 1-.065-.625c0-1.51 1.21-2.734 2.704-2.734.773 0 1.481.325 1.97.859a5.349 5.349 0 0 0 1.726-.664 2.76 2.76 0 0 1-1.198 1.523 5.658 5.658 0 0 0 1.559-.442zm3.296-2.526c0-2.07-1.661-3.75-3.709-3.75H5.71C3.66 2.556 2 4.236 2 6.306v12.5c0 2.07 1.661 3.75 3.709 3.75H18.07c2.048 0 3.71-1.68 3.71-3.75v-12.5z"/></symbol></svg>